<svg width="35" height="35" viewBox="0 0 35 35" fill="none" xmlns="http://www.w3.org/2000/svg">
<path d="M11.6667 33.8334C9.0895 33.8334 7 31.7439 7 29.1667C7 26.5895 9.0895 24.5 11.6667 24.5H14.9998C15.736 24.5 16.3333 25.0974 16.3333 25.8335V29.1667C16.3333 31.7439 14.2438 33.8334 11.6667 33.8334ZM23.3333 10.5H20.0002C19.264 10.5 18.6667 9.90269 18.6667 9.16652V2.50019C18.6667 1.76402 19.264 1.16669 20.0002 1.16669H23.3333C25.9105 1.16669 28 3.25619 28 5.83335C28 8.41052 25.9105 10.5 23.3333 10.5ZM11.6667 1.16669H14.9998C15.736 1.16669 16.3333 1.76402 16.3333 2.50019V9.16652C16.3333 9.90269 15.736 10.5 14.9998 10.5H11.6667C9.0895 10.5 7 8.41052 7 5.83335C7 3.25619 9.0895 1.16669 11.6667 1.16669ZM11.6667 12.8334H14.9998C15.736 12.8334 16.3333 13.4307 16.3333 14.1669V20.8332C16.3333 21.5694 15.736 22.1667 14.9998 22.1667H11.6667C9.0895 22.1667 7 20.0772 7 17.5C7 14.9229 9.0895 12.8334 11.6667 12.8334ZM23.3333 12.8334C22.0957 12.8334 20.9087 13.325 20.0335 14.2002C19.1583 15.0754 18.6667 16.2623 18.6667 17.5C18.6667 18.7377 19.1583 19.9247 20.0335 20.7999C20.9087 21.675 22.0957 22.1667 23.3333 22.1667C24.571 22.1667 25.758 21.675 26.6332 20.7999C27.5083 19.9247 28 18.7377 28 17.5C28 16.2623 27.5083 15.0754 26.6332 14.2002C25.758 13.325 24.571 12.8334 23.3333 12.8334Z" fill="white"/>
</svg>
