<svg width="206" height="205" viewBox="0 0 206 205" fill="none" xmlns="http://www.w3.org/2000/svg">
<path fill-rule="evenodd" clip-rule="evenodd" d="M6.31621 204.755C-11.6698 131.36 19.5292 93.171 41.6072 64.274C63.0882 36.229 62.7472 14.236 50.9832 0C123.526 21.141 141.001 67.172 154.98 100.758C168.534 133.406 187.799 144.147 205.956 141.078C151.4 193.332 102.726 185.405 66.6682 180.716C31.6332 176.113 12.7092 187.451 6.31621 204.755Z" fill="white"/>
<path fill-rule="evenodd" clip-rule="evenodd" d="M22.5972 162.645C29.5022 160.343 36.8332 158.979 44.3342 158.383C44.5052 151.478 45.8692 142.783 49.5342 132.895C55.3312 117.21 65.9012 103.827 75.9602 90.6141C80.8192 84.3061 85.2512 77.572 89.0872 70.411C89.9402 71.349 90.7922 72.3721 91.5592 73.3101C102.3 86.2671 108.608 102.037 115.001 117.381C117.388 123.262 121.565 131.616 126.68 139.97C115.768 142.868 79.4552 136.987 59.9342 124.967C79.7962 157.701 129.578 166.737 161.288 147.983C149.866 137.839 141.086 123.689 134.948 109.112C127.617 91.2961 120.713 74.5881 108.267 59.5001C99.9132 49.4421 90.1102 41.5141 79.2842 35.2061C76.3012 50.2091 68.4582 64.8711 58.8262 77.4871C47.0622 92.7451 35.9812 107.066 29.2462 125.393C24.6432 137.669 22.6832 150.114 22.5972 162.645Z" fill="black"/>
</svg>
