<svg width="41" height="54" viewBox="0 0 41 54" fill="none" xmlns="http://www.w3.org/2000/svg">
<path d="M18.812 0.0719991H1.712C0.884 0.0719991 0.2 0.719999 0.2 1.584V52.488C0.2 53.316 0.884 54 1.712 54H9.272C10.1 54 10.784 53.316 10.784 52.488V29.7L27.848 52.956C28.316 53.604 29.072 54 29.9 54H39.152C39.836 54 40.34 53.424 40.34 52.812C40.34 52.596 40.268 52.344 40.088 52.128L21.872 27.54C27.38 26.748 30.584 22.896 30.584 17.172C30.584 11.124 26.192 7.2 19.352 7.2H9.272C8.444 7.2 7.76 7.848 7.76 8.712V19.152C7.76 19.98 8.444 20.664 9.272 20.664C10.1 20.664 10.784 19.98 10.784 19.152V10.224H19.352C24.356 10.224 27.56 12.636 27.56 17.172C27.56 21.204 25.616 24.768 18.992 24.768H18.38C17.696 24.768 17.192 25.308 17.192 25.92C17.192 26.172 17.264 26.424 17.444 26.64L35.48 50.976H30.152L11.684 25.812C11.18 25.128 10.424 24.768 9.596 24.768H9.272C8.444 24.768 7.76 25.416 7.76 26.28V50.976H3.224V3.096H18.812C28.676 3.096 35.12 8.496 35.12 17.172C35.12 21.888 33.356 26.064 29.792 28.584C29.36 28.872 29.108 29.34 29.108 29.808C29.108 30.672 29.792 31.356 30.62 31.356C30.944 31.356 31.232 31.248 31.52 31.068C35.768 28.08 38.144 23.112 38.144 17.172C38.144 7.596 31.232 0.0719991 18.812 0.0719991Z" fill="white"/>
</svg>
